<?xml version="1.0" standalone="no"?>
<!DOCTYPE svg PUBLIC "-//W3C//DTD SVG 20010904//EN"
 "http://www.w3.org/TR/2001/REC-SVG-20010904/DTD/svg10.dtd">
<svg version="1.0" xmlns="http://www.w3.org/2000/svg"
 width="484.000000pt" height="277.000000pt" viewBox="0 0 484.000000 277.000000"
 preserveAspectRatio="xMidYMid meet">

<g transform="translate(0.000000,277.000000) scale(0.100000,-0.100000)"
fill="#000000" stroke="none">
<path d="M4502 2655 c-34 -49 -104 -99 -162 -116 -194 -58 -479 -94 -680 -86
-74 3 -175 10 -225 16 -83 10 -159 16 -555 42 -227 15 -436 -7 -555 -58 -150
-64 -245 -109 -304 -144 -36 -22 -69 -39 -75 -39 -5 0 13 23 40 51 96 101 104
111 98 121 -6 10 -127 6 -184 -6 -14 -3 -77 -16 -140 -28 -63 -13 -117 -25
-120 -29 -3 -3 -57 -22 -120 -42 -63 -21 -124 -41 -135 -46 -313 -138 -427
-214 -553 -368 -50 -61 -84 -160 -73 -214 l7 -34 104 -7 c58 -4 215 -12 350
-17 243 -9 464 -21 735 -41 91 -6 163 -7 205 0 73 10 112 16 185 25 28 4 75
13 105 20 30 7 71 16 90 20 37 6 47 9 70 18 8 3 35 11 60 17 80 20 305 93 310
101 3 4 39 17 80 28 95 25 243 77 293 103 22 11 41 18 43 16 10 -11 -432 -207
-584 -259 -48 -16 -98 -36 -112 -43 -49 -26 -304 -89 -500 -122 -101 -17 -627
-11 -943 11 -306 21 -618 14 -732 -16 -22 -6 -51 -13 -65 -16 -32 -5 -118 -37
-187 -68 -29 -14 -65 -28 -80 -31 -16 -4 -37 -13 -48 -19 -11 -7 -37 -18 -58
-25 -56 -17 -47 -34 15 -27 80 9 128 17 183 33 28 7 66 16 85 19 19 3 53 10
75 15 83 19 234 34 345 35 102 0 120 -3 160 -24 25 -13 54 -31 65 -41 73 -66
434 -250 552 -282 122 -32 406 -102 466 -113 24 -5 21 7 -10 36 -16 14 -50 50
-78 79 l-50 54 66 -61 c58 -53 167 -123 191 -123 4 0 36 -13 70 -28 78 -36 87
-38 277 -68 167 -26 275 -30 398 -14 100 13 263 51 263 62 0 4 -2 8 -5 8 -15
0 -162 32 -175 38 -8 4 68 10 170 13 242 8 276 12 395 50 221 70 419 203 660
444 127 127 147 152 194 250 68 139 120 312 138 450 10 82 15 525 6 525 -5 0
-23 -20 -41 -45z"/>
<path d="M1899 561 c-19 -84 -9 -92 45 -34 33 36 37 38 98 38 l63 0 -2 -204
c-2 -136 -6 -208 -14 -217 -6 -8 -24 -14 -40 -14 -19 0 -29 -5 -29 -15 0 -13
21 -15 125 -15 104 0 125 2 125 15 0 8 -9 15 -21 15 -11 0 -29 5 -40 10 -18
10 -19 23 -19 205 0 106 3 200 6 209 5 12 20 16 59 16 72 0 104 -14 118 -50 7
-18 19 -30 29 -30 16 0 18 10 18 71 l0 71 -27 -8 c-35 -10 -407 -10 -448 0
l-30 7 -16 -70z"/>
<path d="M539 611 c-68 -22 -99 -63 -99 -129 0 -64 28 -95 133 -145 52 -25
102 -56 111 -68 43 -62 -9 -149 -90 -149 -44 0 -83 29 -115 85 -49 86 -62 70
-43 -51 5 -37 33 -52 113 -60 79 -9 138 10 182 56 47 49 57 98 31 148 -15 29
-37 47 -106 83 -142 75 -173 123 -118 179 52 52 126 30 158 -47 23 -53 44 -43
44 22 0 46 -3 56 -22 66 -28 15 -144 21 -179 10z"/>
<path d="M992 602 c-61 -22 -114 -69 -145 -127 -31 -58 -30 -173 2 -237 94
-194 395 -196 493 -4 26 51 35 150 18 202 -36 110 -120 172 -243 180 -54 4
-85 0 -125 -14z m206 -38 c15 -11 38 -42 52 -70 21 -41 25 -63 25 -139 0 -77
-4 -98 -26 -140 -65 -127 -240 -128 -306 -2 -25 49 -35 141 -22 210 14 80 42
125 93 149 53 24 144 20 184 -8z"/>
<path d="M1410 605 c0 -10 10 -15 30 -15 40 0 42 -11 38 -244 -3 -211 -5 -215
-55 -216 -14 0 -23 -6 -23 -15 0 -12 20 -15 120 -15 100 0 120 3 120 15 0 9
-9 15 -22 15 -45 0 -52 13 -56 114 l-4 96 70 0 c75 0 102 -13 102 -51 0 -12 7
-19 20 -19 18 0 20 7 20 85 0 78 -2 85 -20 85 -11 0 -20 -6 -20 -14 0 -33 -30
-46 -102 -46 l-71 0 7 61 c3 34 6 82 6 105 l0 44 79 0 c69 0 83 -3 108 -24 16
-13 35 -36 42 -50 15 -26 51 -36 51 -13 0 6 -6 35 -13 62 l-13 50 -207 3
c-180 2 -207 0 -207 -13z"/>
<path d="M2440 606 c0 -8 11 -17 24 -20 25 -6 28 -12 174 -390 21 -55 43 -101
48 -103 6 -2 32 54 57 124 25 70 53 146 62 167 l17 39 25 -69 c14 -38 40 -112
58 -164 19 -55 39 -95 46 -95 8 0 48 90 100 225 89 230 109 270 134 270 8 0
15 7 15 15 0 12 -17 15 -90 15 -73 0 -90 -3 -90 -15 0 -8 8 -15 19 -15 32 0
43 -23 32 -71 -12 -52 -93 -280 -98 -275 -2 2 -28 74 -58 161 -57 168 -58 185
-9 185 15 0 24 6 24 15 0 12 -19 15 -110 15 -89 0 -110 -3 -110 -14 0 -8 10
-16 23 -18 15 -2 29 -17 44 -49 l22 -46 -42 -127 c-23 -69 -44 -126 -47 -126
-3 0 -27 58 -54 128 -56 147 -65 215 -28 220 12 2 22 10 22 18 0 11 -21 14
-105 14 -83 0 -105 -3 -105 -14z"/>
<path d="M3250 606 c0 -8 12 -16 27 -18 20 -2 29 -11 35 -33 11 -39 -2 -396
-15 -412 -5 -7 -20 -13 -33 -13 -15 0 -24 -6 -24 -15 0 -13 32 -15 224 -15
l224 0 14 63 c12 53 12 62 -1 66 -8 1 -19 -5 -24 -15 -6 -11 -25 -34 -43 -51
-32 -33 -33 -33 -127 -33 -77 0 -96 3 -101 16 -3 9 -6 58 -6 110 l0 94 59 0
c66 0 91 -15 91 -56 0 -17 5 -24 20 -24 19 0 20 7 20 95 0 87 -2 95 -19 95
-12 0 -21 -10 -26 -27 -9 -37 -20 -43 -88 -43 l-58 0 3 98 3 97 72 3 c78 3
124 -12 143 -48 6 -11 17 -20 25 -20 16 0 19 20 9 69 l-6 31 -199 0 c-166 0
-199 -2 -199 -14z"/>
<path d="M3985 583 c-14 -21 -25 -44 -26 -53 0 -8 -33 -94 -72 -190 -62 -150
-77 -178 -104 -195 -55 -34 -43 -45 52 -45 67 0 85 3 85 14 0 8 -10 16 -22 18
-32 4 -34 38 -8 104 l22 54 83 0 83 0 22 -54 c26 -66 24 -100 -7 -104 -13 -2
-23 -10 -23 -18 0 -11 21 -14 110 -14 91 0 110 3 110 15 0 8 -8 15 -17 15 -33
0 -54 37 -133 239 -45 113 -85 216 -90 229 -14 32 -36 27 -65 -15z m45 -163
c16 -40 30 -77 30 -81 0 -5 -29 -9 -65 -9 -36 0 -65 3 -65 8 0 6 9 30 49 136
7 16 14 27 16 24 3 -2 18 -37 35 -78z"/>
<path d="M4340 606 c0 -10 9 -16 24 -16 16 0 26 -7 30 -22 8 -30 7 -142 -1
-301 l-6 -128 -29 -6 c-15 -3 -28 -12 -28 -19 0 -11 23 -14 110 -14 91 0 110
3 110 15 0 9 -9 15 -25 15 -35 0 -45 27 -45 124 l0 86 29 0 c26 0 36 -11 97
-106 37 -58 74 -112 81 -120 19 -19 123 -19 123 -1 0 7 -11 17 -25 23 -15 5
-56 51 -100 113 l-74 105 39 17 c103 46 104 171 2 221 -40 19 -67 23 -179 26
-117 4 -133 2 -133 -12z m268 -49 c29 -29 35 -94 13 -135 -15 -27 -67 -52
-111 -52 l-30 0 0 103 c0 57 3 107 8 111 15 16 94 -2 120 -27z"/>
</g>
</svg>
