<?xml version="1.0" standalone="no"?>
<!DOCTYPE svg PUBLIC "-//W3C//DTD SVG 20010904//EN"
 "http://www.w3.org/TR/2001/REC-SVG-20010904/DTD/svg10.dtd">
<svg version="1.0" xmlns="http://www.w3.org/2000/svg"
 width="749.000000pt" height="313.000000pt" viewBox="0 0 749.000000 313.000000"
 preserveAspectRatio="xMidYMid meet">

<g transform="translate(0.000000,313.000000) scale(0.100000,-0.100000)"
fill="#000000" stroke="none">
<path d="M7428 3004 c-131 -164 -265 -223 -652 -289 -374 -63 -688 -74 -1091
-36 -1135 105 -1578 100 -1880 -19 -132 -53 -408 -180 -494 -229 -122 -68
-151 -83 -151 -74 1 5 52 64 115 133 63 69 115 131 115 138 0 14 -12 15 -135
13 -341 -6 -984 -207 -1425 -444 -343 -185 -597 -444 -641 -656 -11 -53 -9
-164 3 -176 9 -10 220 -23 808 -50 300 -14 687 -34 860 -45 570 -35 544 -35
760 -6 107 15 275 42 374 62 243 48 724 188 866 251 30 14 127 46 215 73 185
56 321 104 419 149 80 36 102 34 29 -3 -276 -139 -812 -364 -1174 -492 -81
-29 -365 -100 -599 -151 l-175 -38 -555 1 c-446 0 -637 5 -970 23 -335 19
-475 22 -725 18 -170 -3 -346 -11 -390 -17 -194 -26 -402 -92 -760 -241 -27
-12 -78 -33 -112 -47 -109 -44 -73 -59 90 -38 64 8 160 26 214 40 326 83 609
119 888 114 173 -3 182 -4 235 -30 30 -15 92 -54 137 -87 153 -110 472 -280
728 -389 122 -52 310 -104 728 -203 209 -49 247 -55 247 -42 0 4 -60 68 -132
142 -73 74 -101 106 -63 72 110 -99 311 -241 340 -241 4 0 68 -24 144 -54 145
-58 247 -82 484 -116 130 -19 184 -21 430 -18 249 3 294 6 386 27 145 32 254
64 258 76 2 6 -59 23 -137 39 -77 16 -140 33 -140 37 0 5 6 9 13 9 96 0 640
33 692 41 96 16 238 59 374 114 299 120 580 323 932 674 113 114 225 235 249
270 84 125 177 340 240 556 76 262 82 308 87 770 3 226 4 421 2 435 -4 23 -9
19 -61 -46z"/>
</g>
</svg>
