<?xml version="1.0" standalone="no"?>
<!DOCTYPE svg PUBLIC "-//W3C//DTD SVG 20010904//EN"
 "http://www.w3.org/TR/2001/REC-SVG-20010904/DTD/svg10.dtd">
<svg version="1.0" xmlns="http://www.w3.org/2000/svg"
 width="762.000000pt" height="761.000000pt" viewBox="0 0 762.000000 761.000000"
 preserveAspectRatio="xMidYMid meet">

<g transform="translate(0.000000,761.000000) scale(0.100000,-0.100000)"
fill="#000000" stroke="none">
<path d="M7528 5044 c-66 -82 -107 -118 -198 -167 -146 -80 -582 -159 -1005
-182 -128 -7 -330 4 -670 35 -653 61 -1195 81 -1405 52 -150 -21 -287 -57
-400 -105 -202 -87 -366 -164 -475 -225 -60 -34 -111 -59 -114 -57 -2 3 32 43
75 90 98 107 154 175 154 186 0 5 -55 9 -123 9 -334 0 -986 -201 -1437 -443
-164 -88 -302 -189 -417 -304 -119 -120 -177 -204 -212 -310 -22 -64 -28 -186
-12 -211 10 -17 119 -25 811 -57 300 -14 687 -34 860 -45 570 -35 544 -35 760
-6 107 15 275 42 374 62 243 48 724 188 866 251 30 14 129 47 218 74 175 53
311 101 418 150 37 16 69 27 71 25 15 -15 -653 -312 -937 -417 -74 -27 -173
-65 -220 -84 -95 -38 -392 -115 -665 -172 l-180 -38 -550 1 c-440 0 -633 5
-965 23 -336 19 -474 22 -725 18 -170 -3 -346 -11 -390 -17 -199 -27 -387 -87
-760 -241 -27 -12 -78 -33 -112 -47 -177 -72 47 -60 392 22 298 70 506 96 776
96 194 0 235 -9 329 -74 222 -154 531 -323 795 -434 121 -51 336 -111 744
-207 194 -45 231 -51 231 -38 0 4 -60 68 -132 143 -123 124 -133 139 -33 46
77 -72 284 -216 310 -216 4 0 68 -24 144 -54 143 -57 241 -81 481 -117 177
-26 473 -36 619 -20 174 19 450 83 458 107 2 6 -25 16 -64 23 -156 27 -269 61
-207 61 88 0 652 33 700 40 86 14 240 61 373 115 300 120 581 324 932 674 113
113 224 233 246 266 121 181 251 525 304 810 19 96 22 160 26 520 3 226 4 421
2 435 -4 23 -9 19 -61 -46z"/>
</g>
</svg>
