<?xml version="1.0" standalone="no"?>
<!DOCTYPE svg PUBLIC "-//W3C//DTD SVG 20010904//EN"
 "http://www.w3.org/TR/2001/REC-SVG-20010904/DTD/svg10.dtd">
<svg version="1.0" xmlns="http://www.w3.org/2000/svg"
 width="1600.000000pt" height="1200.000000pt" viewBox="0 0 1600.000000 1200.000000"
 preserveAspectRatio="xMidYMid meet">

<g transform="translate(0.000000,1200.000000) scale(0.100000,-0.100000)"
fill="#000000" stroke="none">
<path d="M8752 5965 c-34 -49 -104 -99 -162 -116 -194 -58 -479 -94 -680 -86
-74 3 -175 10 -225 16 -83 10 -159 16 -555 42 -227 15 -436 -7 -555 -58 -150
-64 -245 -109 -304 -144 -36 -22 -69 -39 -75 -39 -5 0 13 23 40 51 96 101 104
111 98 121 -6 10 -127 6 -184 -6 -14 -3 -77 -16 -140 -28 -63 -13 -117 -25
-120 -29 -3 -3 -57 -22 -120 -42 -63 -21 -124 -41 -135 -46 -313 -138 -427
-214 -553 -368 -50 -61 -84 -160 -73 -214 l7 -34 104 -7 c58 -4 215 -12 350
-17 243 -9 464 -21 735 -41 91 -6 163 -7 205 0 73 10 112 16 185 25 28 4 75
13 105 20 30 7 71 16 90 20 37 6 47 9 70 18 8 3 35 11 60 17 80 20 305 93 310
101 3 4 39 17 80 28 95 25 243 77 293 103 22 11 41 18 43 16 10 -11 -432 -207
-584 -259 -48 -16 -98 -36 -112 -43 -49 -26 -304 -89 -500 -122 -101 -17 -627
-11 -943 11 -306 21 -618 14 -732 -16 -22 -6 -51 -13 -65 -16 -32 -5 -118 -37
-187 -68 -29 -14 -65 -28 -80 -31 -16 -4 -37 -13 -48 -19 -11 -7 -37 -18 -57
-25 -57 -17 -48 -34 15 -27 79 9 127 17 182 33 28 7 66 16 85 19 19 3 53 10
75 15 83 19 234 34 345 35 102 0 120 -3 160 -24 25 -13 54 -31 65 -41 73 -66
434 -250 552 -282 122 -32 406 -102 466 -113 24 -5 21 7 -10 36 -16 14 -50 50
-78 79 l-50 54 66 -61 c58 -53 167 -123 191 -123 4 0 36 -13 70 -28 78 -36 87
-38 277 -68 167 -26 275 -30 398 -14 100 13 263 51 263 62 0 4 -2 8 -5 8 -15
0 -162 32 -175 38 -8 4 68 10 170 13 242 8 276 12 395 50 221 70 419 203 660
444 127 127 147 152 194 250 68 139 120 312 138 450 10 82 15 525 6 525 -5 0
-23 -20 -41 -45z"/>
</g>
</svg>
