<?xml version="1.0" standalone="no"?>
<!DOCTYPE svg PUBLIC "-//W3C//DTD SVG 20010904//EN"
 "http://www.w3.org/TR/2001/REC-SVG-20010904/DTD/svg10.dtd">
<svg version="1.0" xmlns="http://www.w3.org/2000/svg"
 width="485.000000pt" height="82.000000pt" viewBox="0 0 485.000000 82.000000"
 preserveAspectRatio="xMidYMid meet">

<g transform="translate(0.000000,82.000000) scale(0.100000,-0.100000)"
fill="#000000" stroke="none">
<path d="M1759 541 c-19 -84 -9 -92 45 -34 33 36 37 38 98 38 l63 0 -2 -204
c-2 -136 -6 -208 -14 -217 -6 -8 -24 -14 -40 -14 -19 0 -29 -5 -29 -15 0 -13
21 -15 125 -15 104 0 125 2 125 15 0 8 -9 15 -21 15 -11 0 -29 5 -40 10 -18
10 -19 23 -19 205 0 106 3 200 6 209 5 12 20 16 59 16 72 0 104 -14 118 -50 7
-18 19 -30 29 -30 16 0 18 10 18 71 l0 71 -27 -8 c-35 -10 -407 -10 -448 0
l-30 7 -16 -70z"/>
<path d="M399 591 c-68 -22 -99 -63 -99 -129 0 -64 28 -95 133 -145 52 -25
102 -56 111 -68 43 -62 -9 -149 -90 -149 -44 0 -83 29 -115 85 -17 30 -35 55
-40 55 -10 0 -12 -83 -3 -116 8 -29 45 -44 124 -51 53 -4 75 -2 112 15 60 26
101 80 102 135 1 61 -24 90 -122 141 -95 48 -127 76 -137 118 -6 22 -1 33 23
58 52 52 126 30 158 -47 23 -53 44 -43 44 22 0 45 -4 56 -21 65 -26 15 -147
22 -180 11z"/>
<path d="M852 582 c-61 -22 -114 -69 -145 -127 -31 -58 -30 -173 2 -237 94
-194 395 -196 493 -4 26 51 35 150 18 202 -36 110 -120 172 -243 180 -54 4
-85 0 -125 -14z m206 -38 c15 -11 38 -42 52 -70 21 -42 25 -62 25 -140 -1 -77
-4 -98 -26 -140 -31 -59 -84 -94 -147 -94 -108 0 -176 73 -185 203 -10 123 27
216 97 249 53 24 144 20 184 -8z"/>
<path d="M1270 585 c0 -10 10 -15 30 -15 40 0 42 -11 38 -244 -3 -211 -5 -215
-55 -216 -14 0 -23 -6 -23 -15 0 -12 20 -15 120 -15 100 0 120 3 120 15 0 9
-9 15 -22 15 -45 0 -52 13 -56 114 l-4 96 70 0 c75 0 102 -13 102 -51 0 -12 7
-19 20 -19 18 0 20 7 20 85 0 78 -2 85 -20 85 -11 0 -20 -6 -20 -14 0 -33 -30
-46 -102 -46 l-71 0 7 61 c3 34 6 82 6 105 l0 44 79 0 c69 0 83 -3 108 -24 16
-13 35 -36 42 -50 15 -26 51 -36 51 -13 0 6 -6 35 -13 62 l-13 50 -207 3
c-180 2 -207 0 -207 -13z"/>
<path d="M2300 586 c0 -8 11 -17 24 -20 25 -6 28 -12 174 -390 21 -55 43 -101
48 -103 6 -2 32 54 57 124 25 70 53 146 62 167 l17 39 25 -69 c14 -38 40 -112
58 -164 19 -55 39 -95 46 -95 8 0 48 90 100 225 89 230 109 270 134 270 8 0
15 7 15 15 0 12 -17 15 -90 15 -73 0 -90 -3 -90 -15 0 -8 8 -15 19 -15 32 0
43 -23 32 -71 -12 -52 -93 -280 -98 -275 -2 2 -28 74 -58 161 -57 168 -58 185
-9 185 15 0 24 6 24 15 0 12 -19 15 -110 15 -89 0 -110 -3 -110 -14 0 -8 10
-16 23 -18 15 -2 29 -17 44 -49 l22 -46 -42 -127 c-23 -69 -44 -126 -47 -126
-3 0 -27 58 -54 128 -56 147 -65 215 -28 220 12 2 22 10 22 18 0 11 -21 14
-105 14 -83 0 -105 -3 -105 -14z"/>
<path d="M3110 586 c0 -8 12 -16 27 -18 20 -2 29 -11 35 -33 11 -39 -2 -396
-15 -412 -5 -7 -20 -13 -33 -13 -15 0 -24 -6 -24 -15 0 -13 32 -15 224 -15
l224 0 14 63 c12 53 12 62 -1 66 -8 1 -19 -5 -24 -15 -6 -11 -25 -34 -43 -51
-32 -33 -33 -33 -127 -33 -77 0 -96 3 -101 16 -3 9 -6 58 -6 110 l0 94 59 0
c66 0 91 -15 91 -56 0 -17 5 -24 20 -24 19 0 20 7 20 95 0 87 -2 95 -19 95
-12 0 -21 -10 -26 -27 -9 -37 -20 -43 -88 -43 l-58 0 3 98 3 97 72 3 c78 3
124 -12 143 -48 6 -11 17 -20 25 -20 16 0 19 20 9 69 l-6 31 -199 0 c-166 0
-199 -2 -199 -14z"/>
<path d="M3845 563 c-14 -21 -25 -44 -26 -53 0 -8 -33 -94 -72 -190 -62 -150
-77 -178 -104 -195 -55 -34 -43 -45 52 -45 67 0 85 3 85 14 0 8 -10 16 -22 18
-32 4 -34 38 -8 104 l22 54 83 0 83 0 22 -54 c26 -66 24 -100 -7 -104 -13 -2
-23 -10 -23 -18 0 -11 21 -14 110 -14 91 0 110 3 110 15 0 8 -8 15 -17 15 -33
0 -54 37 -133 239 -45 113 -85 216 -90 229 -14 32 -36 27 -65 -15z m45 -163
c16 -40 30 -77 30 -81 0 -5 -29 -9 -65 -9 -36 0 -65 3 -65 8 0 6 9 30 49 136
7 16 14 27 16 24 3 -2 18 -37 35 -78z"/>
<path d="M4200 586 c0 -10 9 -16 24 -16 16 0 26 -7 30 -22 8 -30 7 -142 -1
-301 l-6 -128 -29 -6 c-15 -3 -28 -12 -28 -19 0 -11 23 -14 110 -14 91 0 110
3 110 15 0 9 -9 15 -25 15 -35 0 -45 27 -45 124 l0 86 29 0 c26 0 36 -11 97
-106 37 -58 74 -112 81 -120 19 -19 123 -19 123 -1 0 7 -11 17 -25 23 -15 5
-56 52 -100 113 l-75 105 30 12 c111 47 117 174 12 226 -40 19 -67 23 -179 26
-117 4 -133 2 -133 -12z m268 -49 c29 -29 35 -94 13 -135 -15 -27 -67 -52
-111 -52 l-30 0 0 103 c0 57 3 107 8 111 15 16 94 -2 120 -27z"/>
</g>
</svg>
